<svg width="64" height="64" viewBox="0 0 64 64" fill="none" xmlns="http://www.w3.org/2000/svg">
<g clip-path="url(#clip0_89_361)">
<path d="M58.9434 54.002C60.2676 54.0021 61.436 54.4871 62.4473 55.458C63.4705 56.4289 63.988 57.5984 64 58.9648C63.9879 59.8995 63.7411 60.7506 63.2598 61.5176C62.7902 62.2727 62.1755 62.8785 61.417 63.334C60.6586 63.7774 59.8341 63.9989 58.9434 63.999C57.5467 63.999 56.348 63.5138 55.3486 62.543C54.3615 61.5601 53.8738 60.3671 53.8857 58.9648C53.8737 57.5983 54.3614 56.429 55.3486 55.458C56.348 54.487 57.5467 54.002 58.9434 54.002Z" fill="#1E1E1E"/>
<path fill-rule="evenodd" clip-rule="evenodd" d="M28.7529 42.6328C29.0249 41.7669 29.4244 40.941 29.9521 40.1562C30.9153 38.7299 32.3182 37.5913 34.1602 36.7402C36.0023 35.8771 38.3024 35.4453 41.0596 35.4453C43.0462 35.4453 44.829 35.679 46.4062 36.1465C47.9833 36.602 49.326 37.2433 50.4336 38.0703C51.5411 38.8854 52.384 39.8446 52.9619 40.9473C53.5518 42.038 53.8466 43.2253 53.8467 44.5078V63.4248H44.5273V59.541H44.3105C43.7568 60.5717 43.0826 61.4048 42.2881 62.04C41.5055 62.6754 40.608 63.1371 39.5967 63.4248C38.5975 63.7124 37.4958 63.8564 36.292 63.8564C34.5221 63.8564 32.9562 63.5685 31.5957 62.9932C30.4331 62.4867 29.486 61.7566 28.7529 60.8047V63.4248H18.8555V58.8936H18.6387C18.2534 59.8282 17.6996 60.6672 16.9775 61.4102C16.2673 62.1412 15.4001 62.7228 14.377 63.1543C13.3657 63.5738 12.2094 63.7841 10.9092 63.7842C8.9346 63.7842 7.11565 63.2682 5.4541 62.2373C3.80492 61.2065 2.4807 59.6422 1.48145 57.5449C0.494145 55.4471 2.85269e-05 52.8029 0 49.6143C3.60184e-05 46.282 0.518346 43.5731 1.55371 41.4873C2.60122 39.4015 3.94911 37.8724 5.59863 36.9014C7.26024 35.9304 9.00674 35.4453 10.8369 35.4453C12.2091 35.4454 13.413 35.6848 14.4482 36.1641C15.4837 36.6316 16.3515 37.2616 17.0498 38.0527C17.7479 38.8318 18.2775 39.6892 18.6387 40.624H18.7832V31.7773H28.7529V42.6328ZM43.9492 51.3408C43.6844 51.4487 43.4015 51.5506 43.1006 51.6465C42.8116 51.7424 42.4982 51.8321 42.1611 51.916C41.8362 51.9999 41.4873 52.0785 41.1143 52.1504C40.7532 52.2223 40.3737 52.2877 39.9766 52.3477C39.2061 52.4675 38.5737 52.6658 38.0801 52.9414C37.5985 53.2051 37.2369 53.5351 36.9961 53.9307C36.7675 54.3141 36.6534 54.7454 36.6533 55.2246C36.6534 55.9917 36.9241 56.5798 37.4658 56.9873C38.0076 57.3947 38.7003 57.5986 39.543 57.5986C40.3014 57.5986 41.0117 57.4425 41.6738 57.1309C42.348 56.8192 42.896 56.3695 43.3174 55.7822C43.7387 55.1949 43.9492 54.4815 43.9492 53.6426V51.3408ZM14.5928 43.0693C13.6779 43.0694 12.8952 43.333 12.2451 43.8604C11.607 44.3758 11.1138 45.1255 10.7646 46.1084C10.4276 47.0793 10.2588 48.2479 10.2588 49.6143C10.2588 50.9807 10.4276 52.1558 10.7646 53.1387C11.1138 54.1095 11.6071 54.8593 12.2451 55.3867C12.8952 55.902 13.678 56.1601 14.5928 56.1602C15.5078 56.1601 16.2913 55.8965 16.9414 55.3691C17.6036 54.8297 18.1088 54.0734 18.458 53.1025C18.8191 52.1197 19 50.9566 19 49.6143C19 48.248 18.8191 47.0792 18.458 46.1084C18.1089 45.1256 17.6035 44.3758 16.9414 43.8604C16.2912 43.3329 15.5078 43.0694 14.5928 43.0693ZM40.915 42.2783C39.9642 42.2784 39.1878 42.4879 38.5859 42.9072C37.996 43.3148 37.6399 43.9448 37.5195 44.7959H28.7529V50.7432C29.163 50.1876 29.6463 49.7029 30.2051 49.291C31.1322 48.6077 32.2103 48.0862 33.4385 47.7266C34.6784 47.367 36.0147 47.1333 37.4473 47.0254C39.0005 46.9055 40.2474 46.7616 41.1865 46.5938C42.1375 46.4139 42.8237 46.1681 43.2451 45.8564C43.6664 45.5329 43.8769 45.1073 43.877 44.5801V44.5078C43.8769 43.7888 43.6005 43.2371 43.0469 42.8535C42.493 42.4699 41.7819 42.2783 40.915 42.2783Z" fill="#1E1E1E"/>
<path fill-rule="evenodd" clip-rule="evenodd" d="M42.0264 0C45.0362 5.35742e-05 47.6128 0.599284 49.7559 1.79785C51.8989 2.98457 53.5427 4.65129 54.6865 6.79688C55.8303 8.93055 56.4023 11.4123 56.4023 14.2412C56.4023 17.0702 55.8303 19.5584 54.6865 21.7041C53.5427 23.8377 51.8989 25.5044 49.7559 26.7031C47.6128 27.8897 45.0361 28.4824 42.0264 28.4824C39.0164 28.4824 36.4391 27.8898 34.2959 26.7031C32.1528 25.5044 30.5091 23.8377 29.3652 21.7041C29.1677 21.3335 28.9886 20.9515 28.8252 20.5605V27.9795H18.7832V26.5986H18.8555V12.4434C18.8675 11.0769 18.5179 10.0038 17.8076 9.22461C17.1093 8.44558 16.1339 8.05569 14.8818 8.05566C14.0632 8.05571 13.3464 8.23612 12.7324 8.5957C12.1307 8.94332 11.6668 9.44639 11.3418 10.1055C11.0168 10.7528 10.849 11.5324 10.8369 12.4434V27.9795H0.867188V0.359375H10.3311V5.61035H10.6201C11.2221 3.86023 12.2818 2.48714 13.7988 1.49219C15.3279 0.497391 17.1099 0 19.1445 0C21.1071 1.64241e-05 22.811 0.449574 24.2559 1.34863C25.7125 2.23563 26.8382 3.45849 27.6328 5.0166C28.151 6.0176 28.4993 7.11093 28.6797 8.29492C28.8795 7.77818 29.1072 7.27823 29.3652 6.79688C30.5091 4.65116 32.1527 2.9846 34.2959 1.79785C36.4391 0.599123 39.0163 0 42.0264 0ZM42.0986 7.19238C41.2076 7.19238 40.4428 7.47466 39.8047 8.03809C39.1666 8.60147 38.6789 9.40448 38.3418 10.4473C38.0047 11.4782 37.8359 12.7195 37.8359 14.1699C37.836 15.6081 38.0047 16.8488 38.3418 17.8916C38.6789 18.9343 39.1667 19.7374 39.8047 20.3008C40.4428 20.8641 41.2077 21.1465 42.0986 21.1465C42.9412 21.1464 43.6693 20.864 44.2832 20.3008C44.8972 19.7374 45.3738 18.9344 45.7109 17.8916C46.048 16.8489 46.2158 15.6081 46.2158 14.1699C46.2158 12.7196 46.048 11.4781 45.7109 10.4473C45.3738 9.40445 44.8972 8.6015 44.2832 8.03809C43.6693 7.47485 42.9412 7.19248 42.0986 7.19238Z" fill="#1E1E1E"/>
</g>
<defs>
<clipPath id="clip0_89_361">
<rect width="64" height="64" fill="white"/>
</clipPath>
</defs>
</svg>
