<svg width="64" height="64" viewBox="0 0 64 64" fill="none" xmlns="http://www.w3.org/2000/svg">
<g clip-path="url(#clip0_89_504)">
<path d="M58.6672 53.334C60.064 53.334 61.2959 53.8517 62.3625 54.8877C63.4418 55.9236 63.9875 57.1709 64.0002 58.6289C63.9875 59.6264 63.7269 60.5341 63.219 61.3525C62.7237 62.1583 62.0766 62.805 61.2766 63.291C60.4767 63.7641 59.6068 64 58.6672 64C57.1942 64 55.9302 63.4823 54.8762 62.4463C53.8352 61.3976 53.3216 60.1251 53.3342 58.6289C53.3215 57.171 53.8352 55.9236 54.8762 54.8877C55.9302 53.8517 57.1942 53.334 58.6672 53.334ZM27.8567 10.5801C29.9878 10.5801 31.8385 11.0684 33.4075 12.0439C34.9893 13.0065 36.2116 14.3336 37.0744 16.0244C37.9503 17.7152 38.3824 19.6464 38.3694 21.8184V25.8506C39.7542 25.5171 41.2583 25.3496 42.8821 25.3496C46.0604 25.3496 48.7812 25.9889 51.0442 27.2666C53.3071 28.5316 55.0425 30.3076 56.2502 32.5947C57.4579 34.8691 58.0617 37.5139 58.0618 40.5293C58.0618 43.5448 57.458 46.1962 56.2502 48.4834C55.0425 50.7578 53.3071 52.5338 51.0442 53.8115C48.7812 55.0765 46.0604 55.709 42.8821 55.709C39.7038 55.709 36.9829 55.0765 34.72 53.8115C32.4571 52.5338 30.7216 50.7577 29.5139 48.4834C28.3612 46.3005 27.7598 43.7858 27.7073 40.9395H27.7024V24.082C27.7154 22.5992 27.1769 21.4353 26.4055 20.5898C25.6472 19.7444 24.5885 19.3213 23.2287 19.3213C22.3397 19.3213 21.5615 19.5161 20.8948 19.9062C20.241 20.2835 19.738 20.8305 19.385 21.5459C19.032 22.2483 18.8483 23.0935 18.8352 24.082V40.9395H8.01V10.9707H18.2864V16.668H18.5998C19.2535 14.769 20.4047 13.2798 22.052 12.2002C23.7124 11.1206 25.6472 10.5801 27.8567 10.5801ZM42.9582 33.0166C42.0175 33.0166 41.2101 33.3165 40.5364 33.917C39.8626 34.5175 39.3474 35.3738 38.9914 36.4854C38.6355 37.5842 38.4582 38.9071 38.4582 40.4531C38.4583 41.9861 38.6356 43.3084 38.9914 44.4199C39.3474 45.5315 39.8627 46.3877 40.5364 46.9883C41.2101 47.5888 42.0175 47.8896 42.9582 47.8896C43.8482 47.8896 44.6175 47.5888 45.2659 46.9883C45.9142 46.3877 46.4167 45.5315 46.7727 44.4199C47.1286 43.3084 47.3068 41.9861 47.3069 40.4531C47.3069 38.9071 47.1286 37.5842 46.7727 36.4854C46.4167 35.3737 45.9142 34.5175 45.2659 33.917C44.6175 33.3165 43.8481 33.0166 42.9582 33.0166ZM5.33324 0C6.73005 0 7.96189 0.517727 9.02855 1.55371C10.1079 2.58968 10.6535 3.8369 10.6662 5.29492C10.6535 6.29227 10.3937 7.20018 9.88597 8.01855C9.39074 8.82432 8.7426 9.47101 7.94261 9.95703C7.14272 10.4301 6.27277 10.666 5.33324 10.666C3.86032 10.666 2.59711 10.1482 1.5432 9.1123C0.502003 8.0636 -0.0124019 6.79122 0.000229433 5.29492C-0.0124689 3.83687 0.501938 2.5897 1.5432 1.55371C2.59711 0.517809 3.86032 2.54692e-05 5.33324 0Z" fill="#1E1E1E"/>
</g>
<defs>
<clipPath id="clip0_89_504">
<rect width="64" height="64" fill="white"/>
</clipPath>
</defs>
</svg>
